<svg xmlns="http://www.w3.org/2000/svg" width="1000" height="298" viewBox="0 0 1000 298"><rect x="1" y="1" width="998" height="296" rx="10" fill="#090b0f" stroke="#292e38"/><title>GitHub contribution activity for SinthujanCoder</title><text x="30" y="51" fill="#e6edf3" font-family="monospace" font-size="31">260</text><text x="30" y="78" fill="#f03247" font-family="monospace" font-size="11">CONTRIBUTIONS / PAST YEAR</text><text x="360" y="51" fill="#e6edf3" font-family="monospace" font-size="31">6</text><text x="360" y="78" fill="#f03247" font-family="monospace" font-size="11">PUBLIC REPOSITORIES</text><text x="690" y="51" fill="#e6edf3" font-family="monospace" font-size="31">1</text><text x="690" y="78" fill="#f03247" font-family="monospace" font-size="11">FOLLOWERS</text><rect x="50.0" y="116" width="13" height="13" rx="3" fill="#1c222c"><title>2025-10-05: 0 contributions</title></rect><rect x="50.0" y="133" width="13" height="13" rx="3" fill="#1c222c"><title>2025-10-06: 0 contributions</title></rect><rect x="50.0" y="150" width="13" height="13" rx="3" fill="#1c222c"><title>2025-10-07: 0 contributions</title></rect><rect x="50.0" y="167" width="13" height="13" rx="3" fill="#1c222c"><title>2025-10-08: 0 contributions</title></rect><rect x="50.0" y="184" width="13" height="13" rx="3" fill="#1c222c"><title>2025-10-09: 0 contributions</title></rect><rect x="50.0" y="201" width="13" height="13" rx="3" fill="#1c222c"><title>2025-10-10: 0 contributions</title></rect><rect x="50.0" y="218" width="13" height="13" rx="3" fill="#1c222c"><title>2025-10-11: 0 contributions</title></rect><rect x="67.0" y="116" width="13" height="13" rx="3" fill="#1c222c"><title>2025-10-12: 0 contributions</title></rect><rect x="67.0" y="133" width="13" height="13" rx="3" fill="#1c222c"><title>2025-10-13: 0 contributions</title></rect><rect x="67.0" y="150" width="13" height="13" rx="3" fill="#1c222c"><title>2025-10-14: 0 contributions</title></rect><rect x="67.0" y="167" width="13" height="13" rx="3" fill="#1c222c"><title>2025-10-15: 0 contributions</title></rect><rect x="67.0" y="184" width="13" height="13" rx="3" fill="#1c222c"><title>2025-10-16: 0 contributions</title></rect><rect x="67.0" y="201" width="13" height="13" rx="3" fill="#1c222c"><title>2025-10-17: 0 contributions</title></rect><rect x="67.0" y="218" width="13" height="13" rx="3" fill="#1c222c"><title>2025-10-18: 0 contributions</title></rect><rect x="84.0" y="116" width="13" height="13" rx="3" fill="#1c222c"><title>2025-10-19: 0 contributions</title></rect><rect x="84.0" y="133" width="13" height="13" rx="3" fill="#1c222c"><title>2025-10-20: 0 contributions</title></rect><rect x="84.0" y="150" width="13" height="13" rx="3" fill="#1c222c"><title>2025-10-21: 0 contributions</title></rect><rect x="84.0" y="167" width="13" height="13" rx="3" fill="#1c222c"><title>2025-10-22: 0 contributions</title></rect><rect x="84.0" y="184" width="13" height="13" rx="3" fill="#1c222c"><title>2025-10-23: 0 contributions</title></rect><rect x="84.0" y="201" width="13" height="13" rx="3" fill="#1c222c"><title>2025-10-24: 0 contributions</title></rect><rect x="84.0" y="218" width="13" height="13" rx="3" fill="#1c222c"><title>2025-10-25: 0 contributions</title></rect><rect x="101.0" y="116" width="13" height="13" rx="3" fill="#1c222c"><title>2025-10-26: 0 contributions</title></rect><rect x="101.0" y="133" width="13" height="13" rx="3" fill="#1c222c"><title>2025-10-27: 0 contributions</title></rect><rect x="101.0" y="150" width="13" height="13" rx="3" fill="#1c222c"><title>2025-10-28: 0 contributions</title></rect><rect x="101.0" y="167" width="13" height="13" rx="3" fill="#1c222c"><title>2025-10-29: 0 contributions</title></rect><rect x="101.0" y="184" width="13" height="13" rx="3" fill="#1c222c"><title>2025-10-30: 0 contributions</title></rect><rect x="101.0" y="201" width="13" height="13" rx="3" fill="#1c222c"><title>2025-10-31: 0 contributions</title></rect><rect x="101.0" y="218" width="13" height="13" rx="3" fill="#1c222c"><title>2025-11-01: 0 contributions</title></rect><rect x="118.0" y="116" width="13" height="13" rx="3" fill="#1c222c"><title>2025-11-02: 0 contributions</title></rect><rect x="118.0" y="133" width="13" height="13" rx="3" fill="#1c222c"><title>2025-11-03: 0 contributions</title></rect><rect x="118.0" y="150" width="13" height="13" rx="3" fill="#1c222c"><title>2025-11-04: 0 contributions</title></rect><rect x="118.0" y="167" width="13" height="13" rx="3" fill="#1c222c"><title>2025-11-05: 0 contributions</title></rect><rect x="118.0" y="184" width="13" height="13" rx="3" fill="#3b1720"><title>2025-11-06: 1 contributions</title></rect><rect x="118.0" y="201" width="13" height="13" rx="3" fill="#1c222c"><title>2025-11-07: 0 contributions</title></rect><rect x="118.0" y="218" width="13" height="13" rx="3" fill="#1c222c"><title>2025-11-08: 0 contributions</title></rect><rect x="135.0" y="116" width="13" height="13" rx="3" fill="#1c222c"><title>2025-11-09: 0 contributions</title></rect><rect x="135.0" y="133" width="13" height="13" rx="3" fill="#1c222c"><title>2025-11-10: 0 contributions</title></rect><rect x="135.0" y="150" width="13" height="13" rx="3" fill="#1c222c"><title>2025-11-11: 0 contributions</title></rect><rect x="135.0" y="167" width="13" height="13" rx="3" fill="#1c222c"><title>2025-11-12: 0 contributions</title></rect><rect x="135.0" y="184" width="13" height="13" rx="3" fill="#1c222c"><title>2025-11-13: 0 contributions</title></rect><rect x="135.0" y="201" width="13" height="13" rx="3" fill="#1c222c"><title>2025-11-14: 0 contributions</title></rect><rect x="135.0" y="218" width="13" height="13" rx="3" fill="#1c222c"><title>2025-11-15: 0 contributions</title></rect><rect x="152.0" y="116" width="13" height="13" rx="3" fill="#1c222c"><title>2025-11-16: 0 contributions</title></rect><rect x="152.0" y="133" width="13" height="13" rx="3" fill="#1c222c"><title>2025-11-17: 0 contributions</title></rect><rect x="152.0" y="150" width="13" height="13" rx="3" fill="#1c222c"><title>2025-11-18: 0 contributions</title></rect><rect x="152.0" y="167" width="13" height="13" rx="3" fill="#1c222c"><title>2025-11-19: 0 contributions</title></rect><rect x="152.0" y="184" width="13" height="13" rx="3" fill="#1c222c"><title>2025-11-20: 0 contributions</title></rect><rect x="152.0" y="201" width="13" height="13" rx="3" fill="#1c222c"><title>2025-11-21: 0 contributions</title></rect><rect x="152.0" y="218" width="13" height="13" rx="3" fill="#1c222c"><title>2025-11-22: 0 contributions</title></rect><rect x="169.0" y="116" width="13" height="13" rx="3" fill="#1c222c"><title>2025-11-23: 0 contributions</title></rect><rect x="169.0" y="133" width="13" height="13" rx="3" fill="#1c222c"><title>2025-11-24: 0 contributions</title></rect><rect x="169.0" y="150" width="13" height="13" rx="3" fill="#1c222c"><title>2025-11-25: 0 contributions</title></rect><rect x="169.0" y="167" width="13" height="13" rx="3" fill="#1c222c"><title>2025-11-26: 0 contributions</title></rect><rect x="169.0" y="184" width="13" height="13" rx="3" fill="#1c222c"><title>2025-11-27: 0 contributions</title></rect><rect x="169.0" y="201" width="13" height="13" rx="3" fill="#1c222c"><title>2025-11-28: 0 contributions</title></rect><rect x="169.0" y="218" width="13" height="13" rx="3" fill="#1c222c"><title>2025-11-29: 0 contributions</title></rect><rect x="186.0" y="116" width="13" height="13" rx="3" fill="#1c222c"><title>2025-11-30: 0 contributions</title></rect><rect x="186.0" y="133" width="13" height="13" rx="3" fill="#1c222c"><title>2025-12-01: 0 contributions</title></rect><rect x="186.0" y="150" width="13" height="13" rx="3" fill="#1c222c"><title>2025-12-02: 0 contributions</title></rect><rect x="186.0" y="167" width="13" height="13" rx="3" fill="#f03247"><title>2025-12-03: 11 contributions</title></rect><rect x="186.0" y="184" width="13" height="13" rx="3" fill="#742331"><title>2025-12-04: 3 contributions</title></rect><rect x="186.0" y="201" width="13" height="13" rx="3" fill="#742331"><title>2025-12-05: 4 contributions</title></rect><rect x="186.0" y="218" width="13" height="13" rx="3" fill="#742331"><title>2025-12-06: 3 contributions</title></rect><rect x="203.0" y="116" width="13" height="13" rx="3" fill="#1c222c"><title>2025-12-07: 0 contributions</title></rect><rect x="203.0" y="133" width="13" height="13" rx="3" fill="#1c222c"><title>2025-12-08: 0 contributions</title></rect><rect x="203.0" y="150" width="13" height="13" rx="3" fill="#1c222c"><title>2025-12-09: 0 contributions</title></rect><rect x="203.0" y="167" width="13" height="13" rx="3" fill="#1c222c"><title>2025-12-10: 0 contributions</title></rect><rect x="203.0" y="184" width="13" height="13" rx="3" fill="#742331"><title>2025-12-11: 3 contributions</title></rect><rect x="203.0" y="201" width="13" height="13" rx="3" fill="#1c222c"><title>2025-12-12: 0 contributions</title></rect><rect x="203.0" y="218" width="13" height="13" rx="3" fill="#1c222c"><title>2025-12-13: 0 contributions</title></rect><rect x="220.0" y="116" width="13" height="13" rx="3" fill="#1c222c"><title>2025-12-14: 0 contributions</title></rect><rect x="220.0" y="133" width="13" height="13" rx="3" fill="#1c222c"><title>2025-12-15: 0 contributions</title></rect><rect x="220.0" y="150" width="13" height="13" rx="3" fill="#1c222c"><title>2025-12-16: 0 contributions</title></rect><rect x="220.0" y="167" width="13" height="13" rx="3" fill="#1c222c"><title>2025-12-17: 0 contributions</title></rect><rect x="220.0" y="184" width="13" height="13" rx="3" fill="#1c222c"><title>2025-12-18: 0 contributions</title></rect><rect x="220.0" y="201" width="13" height="13" rx="3" fill="#1c222c"><title>2025-12-19: 0 contributions</title></rect><rect x="220.0" y="218" width="13" height="13" rx="3" fill="#742331"><title>2025-12-20: 5 contributions</title></rect><rect x="237.0" y="116" width="13" height="13" rx="3" fill="#1c222c"><title>2025-12-21: 0 contributions</title></rect><rect x="237.0" y="133" width="13" height="13" rx="3" fill="#3b1720"><title>2025-12-22: 2 contributions</title></rect><rect x="237.0" y="150" width="13" height="13" rx="3" fill="#1c222c"><title>2025-12-23: 0 contributions</title></rect><rect x="237.0" y="167" width="13" height="13" rx="3" fill="#1c222c"><title>2025-12-24: 0 contributions</title></rect><rect x="237.0" y="184" width="13" height="13" rx="3" fill="#1c222c"><title>2025-12-25: 0 contributions</title></rect><rect x="237.0" y="201" width="13" height="13" rx="3" fill="#1c222c"><title>2025-12-26: 0 contributions</title></rect><rect x="237.0" y="218" width="13" height="13" rx="3" fill="#1c222c"><title>2025-12-27: 0 contributions</title></rect><rect x="254.0" y="116" width="13" height="13" rx="3" fill="#1c222c"><title>2025-12-28: 0 contributions</title></rect><rect x="254.0" y="133" width="13" height="13" rx="3" fill="#1c222c"><title>2025-12-29: 0 contributions</title></rect><rect x="254.0" y="150" width="13" height="13" rx="3" fill="#1c222c"><title>2025-12-30: 0 contributions</title></rect><rect x="254.0" y="167" width="13" height="13" rx="3" fill="#1c222c"><title>2025-12-31: 0 contributions</title></rect><rect x="254.0" y="184" width="13" height="13" rx="3" fill="#1c222c"><title>2026-01-01: 0 contributions</title></rect><rect x="254.0" y="201" width="13" height="13" rx="3" fill="#1c222c"><title>2026-01-02: 0 contributions</title></rect><rect x="254.0" y="218" width="13" height="13" rx="3" fill="#1c222c"><title>2026-01-03: 0 contributions</title></rect><rect x="271.0" y="116" width="13" height="13" rx="3" fill="#1c222c"><title>2026-01-04: 0 contributions</title></rect><rect x="271.0" y="133" width="13" height="13" rx="3" fill="#1c222c"><title>2026-01-05: 0 contributions</title></rect><rect x="271.0" y="150" width="13" height="13" rx="3" fill="#1c222c"><title>2026-01-06: 0 contributions</title></rect><rect x="271.0" y="167" width="13" height="13" rx="3" fill="#1c222c"><title>2026-01-07: 0 contributions</title></rect><rect x="271.0" y="184" width="13" height="13" rx="3" fill="#1c222c"><title>2026-01-08: 0 contributions</title></rect><rect x="271.0" y="201" width="13" height="13" rx="3" fill="#1c222c"><title>2026-01-09: 0 contributions</title></rect><rect x="271.0" y="218" width="13" height="13" rx="3" fill="#1c222c"><title>2026-01-10: 0 contributions</title></rect><rect x="288.0" y="116" width="13" height="13" rx="3" fill="#742331"><title>2026-01-11: 5 contributions</title></rect><rect x="288.0" y="133" width="13" height="13" rx="3" fill="#1c222c"><title>2026-01-12: 0 contributions</title></rect><rect x="288.0" y="150" width="13" height="13" rx="3" fill="#1c222c"><title>2026-01-13: 0 contributions</title></rect><rect x="288.0" y="167" width="13" height="13" rx="3" fill="#1c222c"><title>2026-01-14: 0 contributions</title></rect><rect x="288.0" y="184" width="13" height="13" rx="3" fill="#1c222c"><title>2026-01-15: 0 contributions</title></rect><rect x="288.0" y="201" width="13" height="13" rx="3" fill="#1c222c"><title>2026-01-16: 0 contributions</title></rect><rect x="288.0" y="218" width="13" height="13" rx="3" fill="#1c222c"><title>2026-01-17: 0 contributions</title></rect><rect x="305.0" y="116" width="13" height="13" rx="3" fill="#3b1720"><title>2026-01-18: 2 contributions</title></rect><rect x="305.0" y="133" width="13" height="13" rx="3" fill="#742331"><title>2026-01-19: 3 contributions</title></rect><rect x="305.0" y="150" width="13" height="13" rx="3" fill="#1c222c"><title>2026-01-20: 0 contributions</title></rect><rect x="305.0" y="167" width="13" height="13" rx="3" fill="#1c222c"><title>2026-01-21: 0 contributions</title></rect><rect x="305.0" y="184" width="13" height="13" rx="3" fill="#1c222c"><title>2026-01-22: 0 contributions</title></rect><rect x="305.0" y="201" width="13" height="13" rx="3" fill="#1c222c"><title>2026-01-23: 0 contributions</title></rect><rect x="305.0" y="218" width="13" height="13" rx="3" fill="#1c222c"><title>2026-01-24: 0 contributions</title></rect><rect x="322.0" y="116" width="13" height="13" rx="3" fill="#1c222c"><title>2026-01-25: 0 contributions</title></rect><rect x="322.0" y="133" width="13" height="13" rx="3" fill="#1c222c"><title>2026-01-26: 0 contributions</title></rect><rect x="322.0" y="150" width="13" height="13" rx="3" fill="#b42b40"><title>2026-01-27: 6 contributions</title></rect><rect x="322.0" y="167" width="13" height="13" rx="3" fill="#1c222c"><title>2026-01-28: 0 contributions</title></rect><rect x="322.0" y="184" width="13" height="13" rx="3" fill="#742331"><title>2026-01-29: 5 contributions</title></rect><rect x="322.0" y="201" width="13" height="13" rx="3" fill="#1c222c"><title>2026-01-30: 0 contributions</title></rect><rect x="322.0" y="218" width="13" height="13" rx="3" fill="#3b1720"><title>2026-01-31: 2 contributions</title></rect><rect x="339.0" y="116" width="13" height="13" rx="3" fill="#1c222c"><title>2026-02-01: 0 contributions</title></rect><rect x="339.0" y="133" width="13" height="13" rx="3" fill="#3b1720"><title>2026-02-02: 1 contributions</title></rect><rect x="339.0" y="150" width="13" height="13" rx="3" fill="#3b1720"><title>2026-02-03: 2 contributions</title></rect><rect x="339.0" y="167" width="13" height="13" rx="3" fill="#742331"><title>2026-02-04: 5 contributions</title></rect><rect x="339.0" y="184" width="13" height="13" rx="3" fill="#1c222c"><title>2026-02-05: 0 contributions</title></rect><rect x="339.0" y="201" width="13" height="13" rx="3" fill="#3b1720"><title>2026-02-06: 1 contributions</title></rect><rect x="339.0" y="218" width="13" height="13" rx="3" fill="#1c222c"><title>2026-02-07: 0 contributions</title></rect><rect x="356.0" y="116" width="13" height="13" rx="3" fill="#1c222c"><title>2026-02-08: 0 contributions</title></rect><rect x="356.0" y="133" width="13" height="13" rx="3" fill="#1c222c"><title>2026-02-09: 0 contributions</title></rect><rect x="356.0" y="150" width="13" height="13" rx="3" fill="#1c222c"><title>2026-02-10: 0 contributions</title></rect><rect x="356.0" y="167" width="13" height="13" rx="3" fill="#1c222c"><title>2026-02-11: 0 contributions</title></rect><rect x="356.0" y="184" width="13" height="13" rx="3" fill="#1c222c"><title>2026-02-12: 0 contributions</title></rect><rect x="356.0" y="201" width="13" height="13" rx="3" fill="#1c222c"><title>2026-02-13: 0 contributions</title></rect><rect x="356.0" y="218" width="13" height="13" rx="3" fill="#1c222c"><title>2026-02-14: 0 contributions</title></rect><rect x="373.0" y="116" width="13" height="13" rx="3" fill="#1c222c"><title>2026-02-15: 0 contributions</title></rect><rect x="373.0" y="133" width="13" height="13" rx="3" fill="#1c222c"><title>2026-02-16: 0 contributions</title></rect><rect x="373.0" y="150" width="13" height="13" rx="3" fill="#1c222c"><title>2026-02-17: 0 contributions</title></rect><rect x="373.0" y="167" width="13" height="13" rx="3" fill="#1c222c"><title>2026-02-18: 0 contributions</title></rect><rect x="373.0" y="184" width="13" height="13" rx="3" fill="#1c222c"><title>2026-02-19: 0 contributions</title></rect><rect x="373.0" y="201" width="13" height="13" rx="3" fill="#1c222c"><title>2026-02-20: 0 contributions</title></rect><rect x="373.0" y="218" width="13" height="13" rx="3" fill="#1c222c"><title>2026-02-21: 0 contributions</title></rect><rect x="390.0" y="116" width="13" height="13" rx="3" fill="#1c222c"><title>2026-02-22: 0 contributions</title></rect><rect x="390.0" y="133" width="13" height="13" rx="3" fill="#1c222c"><title>2026-02-23: 0 contributions</title></rect><rect x="390.0" y="150" width="13" height="13" rx="3" fill="#1c222c"><title>2026-02-24: 0 contributions</title></rect><rect x="390.0" y="167" width="13" height="13" rx="3" fill="#1c222c"><title>2026-02-25: 0 contributions</title></rect><rect x="390.0" y="184" width="13" height="13" rx="3" fill="#1c222c"><title>2026-02-26: 0 contributions</title></rect><rect x="390.0" y="201" width="13" height="13" rx="3" fill="#1c222c"><title>2026-02-27: 0 contributions</title></rect><rect x="390.0" y="218" width="13" height="13" rx="3" fill="#1c222c"><title>2026-02-28: 0 contributions</title></rect><rect x="407.0" y="116" width="13" height="13" rx="3" fill="#1c222c"><title>2026-03-01: 0 contributions</title></rect><rect x="407.0" y="133" width="13" height="13" rx="3" fill="#1c222c"><title>2026-03-02: 0 contributions</title></rect><rect x="407.0" y="150" width="13" height="13" rx="3" fill="#1c222c"><title>2026-03-03: 0 contributions</title></rect><rect x="407.0" y="167" width="13" height="13" rx="3" fill="#1c222c"><title>2026-03-04: 0 contributions</title></rect><rect x="407.0" y="184" width="13" height="13" rx="3" fill="#1c222c"><title>2026-03-05: 0 contributions</title></rect><rect x="407.0" y="201" width="13" height="13" rx="3" fill="#1c222c"><title>2026-03-06: 0 contributions</title></rect><rect x="407.0" y="218" width="13" height="13" rx="3" fill="#1c222c"><title>2026-03-07: 0 contributions</title></rect><rect x="424.0" y="116" width="13" height="13" rx="3" fill="#1c222c"><title>2026-03-08: 0 contributions</title></rect><rect x="424.0" y="133" width="13" height="13" rx="3" fill="#1c222c"><title>2026-03-09: 0 contributions</title></rect><rect x="424.0" y="150" width="13" height="13" rx="3" fill="#1c222c"><title>2026-03-10: 0 contributions</title></rect><rect x="424.0" y="167" width="13" height="13" rx="3" fill="#1c222c"><title>2026-03-11: 0 contributions</title></rect><rect x="424.0" y="184" width="13" height="13" rx="3" fill="#1c222c"><title>2026-03-12: 0 contributions</title></rect><rect x="424.0" y="201" width="13" height="13" rx="3" fill="#1c222c"><title>2026-03-13: 0 contributions</title></rect><rect x="424.0" y="218" width="13" height="13" rx="3" fill="#1c222c"><title>2026-03-14: 0 contributions</title></rect><rect x="441.0" y="116" width="13" height="13" rx="3" fill="#3b1720"><title>2026-03-15: 2 contributions</title></rect><rect x="441.0" y="133" width="13" height="13" rx="3" fill="#3b1720"><title>2026-03-16: 2 contributions</title></rect><rect x="441.0" y="150" width="13" height="13" rx="3" fill="#1c222c"><title>2026-03-17: 0 contributions</title></rect><rect x="441.0" y="167" width="13" height="13" rx="3" fill="#1c222c"><title>2026-03-18: 0 contributions</title></rect><rect x="441.0" y="184" width="13" height="13" rx="3" fill="#1c222c"><title>2026-03-19: 0 contributions</title></rect><rect x="441.0" y="201" width="13" height="13" rx="3" fill="#742331"><title>2026-03-20: 3 contributions</title></rect><rect x="441.0" y="218" width="13" height="13" rx="3" fill="#742331"><title>2026-03-21: 4 contributions</title></rect><rect x="458.0" y="116" width="13" height="13" rx="3" fill="#1c222c"><title>2026-03-22: 0 contributions</title></rect><rect x="458.0" y="133" width="13" height="13" rx="3" fill="#3b1720"><title>2026-03-23: 1 contributions</title></rect><rect x="458.0" y="150" width="13" height="13" rx="3" fill="#1c222c"><title>2026-03-24: 0 contributions</title></rect><rect x="458.0" y="167" width="13" height="13" rx="3" fill="#742331"><title>2026-03-25: 3 contributions</title></rect><rect x="458.0" y="184" width="13" height="13" rx="3" fill="#742331"><title>2026-03-26: 3 contributions</title></rect><rect x="458.0" y="201" width="13" height="13" rx="3" fill="#1c222c"><title>2026-03-27: 0 contributions</title></rect><rect x="458.0" y="218" width="13" height="13" rx="3" fill="#1c222c"><title>2026-03-28: 0 contributions</title></rect><rect x="475.0" y="116" width="13" height="13" rx="3" fill="#1c222c"><title>2026-03-29: 0 contributions</title></rect><rect x="475.0" y="133" width="13" height="13" rx="3" fill="#1c222c"><title>2026-03-30: 0 contributions</title></rect><rect x="475.0" y="150" width="13" height="13" rx="3" fill="#1c222c"><title>2026-03-31: 0 contributions</title></rect><rect x="475.0" y="167" width="13" height="13" rx="3" fill="#1c222c"><title>2026-04-01: 0 contributions</title></rect><rect x="475.0" y="184" width="13" height="13" rx="3" fill="#3b1720"><title>2026-04-02: 1 contributions</title></rect><rect x="475.0" y="201" width="13" height="13" rx="3" fill="#1c222c"><title>2026-04-03: 0 contributions</title></rect><rect x="475.0" y="218" width="13" height="13" rx="3" fill="#742331"><title>2026-04-04: 4 contributions</title></rect><rect x="492.0" y="116" width="13" height="13" rx="3" fill="#3b1720"><title>2026-04-05: 1 contributions</title></rect><rect x="492.0" y="133" width="13" height="13" rx="3" fill="#1c222c"><title>2026-04-06: 0 contributions</title></rect><rect x="492.0" y="150" width="13" height="13" rx="3" fill="#1c222c"><title>2026-04-07: 0 contributions</title></rect><rect x="492.0" y="167" width="13" height="13" rx="3" fill="#f03247"><title>2026-04-08: 29 contributions</title></rect><rect x="492.0" y="184" width="13" height="13" rx="3" fill="#3b1720"><title>2026-04-09: 2 contributions</title></rect><rect x="492.0" y="201" width="13" height="13" rx="3" fill="#1c222c"><title>2026-04-10: 0 contributions</title></rect><rect x="492.0" y="218" width="13" height="13" rx="3" fill="#1c222c"><title>2026-04-11: 0 contributions</title></rect><rect x="509.0" y="116" width="13" height="13" rx="3" fill="#1c222c"><title>2026-04-12: 0 contributions</title></rect><rect x="509.0" y="133" width="13" height="13" rx="3" fill="#1c222c"><title>2026-04-13: 0 contributions</title></rect><rect x="509.0" y="150" width="13" height="13" rx="3" fill="#1c222c"><title>2026-04-14: 0 contributions</title></rect><rect x="509.0" y="167" width="13" height="13" rx="3" fill="#1c222c"><title>2026-04-15: 0 contributions</title></rect><rect x="509.0" y="184" width="13" height="13" rx="3" fill="#1c222c"><title>2026-04-16: 0 contributions</title></rect><rect x="509.0" y="201" width="13" height="13" rx="3" fill="#1c222c"><title>2026-04-17: 0 contributions</title></rect><rect x="509.0" y="218" width="13" height="13" rx="3" fill="#1c222c"><title>2026-04-18: 0 contributions</title></rect><rect x="526.0" y="116" width="13" height="13" rx="3" fill="#1c222c"><title>2026-04-19: 0 contributions</title></rect><rect x="526.0" y="133" width="13" height="13" rx="3" fill="#1c222c"><title>2026-04-20: 0 contributions</title></rect><rect x="526.0" y="150" width="13" height="13" rx="3" fill="#1c222c"><title>2026-04-21: 0 contributions</title></rect><rect x="526.0" y="167" width="13" height="13" rx="3" fill="#1c222c"><title>2026-04-22: 0 contributions</title></rect><rect x="526.0" y="184" width="13" height="13" rx="3" fill="#1c222c"><title>2026-04-23: 0 contributions</title></rect><rect x="526.0" y="201" width="13" height="13" rx="3" fill="#1c222c"><title>2026-04-24: 0 contributions</title></rect><rect x="526.0" y="218" width="13" height="13" rx="3" fill="#1c222c"><title>2026-04-25: 0 contributions</title></rect><rect x="543.0" y="116" width="13" height="13" rx="3" fill="#1c222c"><title>2026-04-26: 0 contributions</title></rect><rect x="543.0" y="133" width="13" height="13" rx="3" fill="#1c222c"><title>2026-04-27: 0 contributions</title></rect><rect x="543.0" y="150" width="13" height="13" rx="3" fill="#1c222c"><title>2026-04-28: 0 contributions</title></rect><rect x="543.0" y="167" width="13" height="13" rx="3" fill="#1c222c"><title>2026-04-29: 0 contributions</title></rect><rect x="543.0" y="184" width="13" height="13" rx="3" fill="#1c222c"><title>2026-04-30: 0 contributions</title></rect><rect x="543.0" y="201" width="13" height="13" rx="3" fill="#1c222c"><title>2026-05-01: 0 contributions</title></rect><rect x="543.0" y="218" width="13" height="13" rx="3" fill="#1c222c"><title>2026-05-02: 0 contributions</title></rect><rect x="560.0" y="116" width="13" height="13" rx="3" fill="#1c222c"><title>2026-05-03: 0 contributions</title></rect><rect x="560.0" y="133" width="13" height="13" rx="3" fill="#1c222c"><title>2026-05-04: 0 contributions</title></rect><rect x="560.0" y="150" width="13" height="13" rx="3" fill="#1c222c"><title>2026-05-05: 0 contributions</title></rect><rect x="560.0" y="167" width="13" height="13" rx="3" fill="#1c222c"><title>2026-05-06: 0 contributions</title></rect><rect x="560.0" y="184" width="13" height="13" rx="3" fill="#1c222c"><title>2026-05-07: 0 contributions</title></rect><rect x="560.0" y="201" width="13" height="13" rx="3" fill="#1c222c"><title>2026-05-08: 0 contributions</title></rect><rect x="560.0" y="218" width="13" height="13" rx="3" fill="#1c222c"><title>2026-05-09: 0 contributions</title></rect><rect x="577.0" y="116" width="13" height="13" rx="3" fill="#1c222c"><title>2026-05-10: 0 contributions</title></rect><rect x="577.0" y="133" width="13" height="13" rx="3" fill="#1c222c"><title>2026-05-11: 0 contributions</title></rect><rect x="577.0" y="150" width="13" height="13" rx="3" fill="#1c222c"><title>2026-05-12: 0 contributions</title></rect><rect x="577.0" y="167" width="13" height="13" rx="3" fill="#1c222c"><title>2026-05-13: 0 contributions</title></rect><rect x="577.0" y="184" width="13" height="13" rx="3" fill="#1c222c"><title>2026-05-14: 0 contributions</title></rect><rect x="577.0" y="201" width="13" height="13" rx="3" fill="#1c222c"><title>2026-05-15: 0 contributions</title></rect><rect x="577.0" y="218" width="13" height="13" rx="3" fill="#1c222c"><title>2026-05-16: 0 contributions</title></rect><rect x="594.0" y="116" width="13" height="13" rx="3" fill="#1c222c"><title>2026-05-17: 0 contributions</title></rect><rect x="594.0" y="133" width="13" height="13" rx="3" fill="#1c222c"><title>2026-05-18: 0 contributions</title></rect><rect x="594.0" y="150" width="13" height="13" rx="3" fill="#1c222c"><title>2026-05-19: 0 contributions</title></rect><rect x="594.0" y="167" width="13" height="13" rx="3" fill="#3b1720"><title>2026-05-20: 1 contributions</title></rect><rect x="594.0" y="184" width="13" height="13" rx="3" fill="#1c222c"><title>2026-05-21: 0 contributions</title></rect><rect x="594.0" y="201" width="13" height="13" rx="3" fill="#1c222c"><title>2026-05-22: 0 contributions</title></rect><rect x="594.0" y="218" width="13" height="13" rx="3" fill="#1c222c"><title>2026-05-23: 0 contributions</title></rect><rect x="611.0" y="116" width="13" height="13" rx="3" fill="#1c222c"><title>2026-05-24: 0 contributions</title></rect><rect x="611.0" y="133" width="13" height="13" rx="3" fill="#1c222c"><title>2026-05-25: 0 contributions</title></rect><rect x="611.0" y="150" width="13" height="13" rx="3" fill="#1c222c"><title>2026-05-26: 0 contributions</title></rect><rect x="611.0" y="167" width="13" height="13" rx="3" fill="#1c222c"><title>2026-05-27: 0 contributions</title></rect><rect x="611.0" y="184" width="13" height="13" rx="3" fill="#1c222c"><title>2026-05-28: 0 contributions</title></rect><rect x="611.0" y="201" width="13" height="13" rx="3" fill="#1c222c"><title>2026-05-29: 0 contributions</title></rect><rect x="611.0" y="218" width="13" height="13" rx="3" fill="#1c222c"><title>2026-05-30: 0 contributions</title></rect><rect x="628.0" y="116" width="13" height="13" rx="3" fill="#1c222c"><title>2026-05-31: 0 contributions</title></rect><rect x="628.0" y="133" width="13" height="13" rx="3" fill="#1c222c"><title>2026-06-01: 0 contributions</title></rect><rect x="628.0" y="150" width="13" height="13" rx="3" fill="#1c222c"><title>2026-06-02: 0 contributions</title></rect><rect x="628.0" y="167" width="13" height="13" rx="3" fill="#1c222c"><title>2026-06-03: 0 contributions</title></rect><rect x="628.0" y="184" width="13" height="13" rx="3" fill="#1c222c"><title>2026-06-04: 0 contributions</title></rect><rect x="628.0" y="201" width="13" height="13" rx="3" fill="#1c222c"><title>2026-06-05: 0 contributions</title></rect><rect x="628.0" y="218" width="13" height="13" rx="3" fill="#1c222c"><title>2026-06-06: 0 contributions</title></rect><rect x="645.0" y="116" width="13" height="13" rx="3" fill="#1c222c"><title>2026-06-07: 0 contributions</title></rect><rect x="645.0" y="133" width="13" height="13" rx="3" fill="#1c222c"><title>2026-06-08: 0 contributions</title></rect><rect x="645.0" y="150" width="13" height="13" rx="3" fill="#1c222c"><title>2026-06-09: 0 contributions</title></rect><rect x="645.0" y="167" width="13" height="13" rx="3" fill="#1c222c"><title>2026-06-10: 0 contributions</title></rect><rect x="645.0" y="184" width="13" height="13" rx="3" fill="#1c222c"><title>2026-06-11: 0 contributions</title></rect><rect x="645.0" y="201" width="13" height="13" rx="3" fill="#1c222c"><title>2026-06-12: 0 contributions</title></rect><rect x="645.0" y="218" width="13" height="13" rx="3" fill="#1c222c"><title>2026-06-13: 0 contributions</title></rect><rect x="662.0" y="116" width="13" height="13" rx="3" fill="#1c222c"><title>2026-06-14: 0 contributions</title></rect><rect x="662.0" y="133" width="13" height="13" rx="3" fill="#1c222c"><title>2026-06-15: 0 contributions</title></rect><rect x="662.0" y="150" width="13" height="13" rx="3" fill="#3b1720"><title>2026-06-16: 1 contributions</title></rect><rect x="662.0" y="167" width="13" height="13" rx="3" fill="#1c222c"><title>2026-06-17: 0 contributions</title></rect><rect x="662.0" y="184" width="13" height="13" rx="3" fill="#1c222c"><title>2026-06-18: 0 contributions</title></rect><rect x="662.0" y="201" width="13" height="13" rx="3" fill="#1c222c"><title>2026-06-19: 0 contributions</title></rect><rect x="662.0" y="218" width="13" height="13" rx="3" fill="#1c222c"><title>2026-06-20: 0 contributions</title></rect><rect x="679.0" y="116" width="13" height="13" rx="3" fill="#1c222c"><title>2026-06-21: 0 contributions</title></rect><rect x="679.0" y="133" width="13" height="13" rx="3" fill="#1c222c"><title>2026-06-22: 0 contributions</title></rect><rect x="679.0" y="150" width="13" height="13" rx="3" fill="#1c222c"><title>2026-06-23: 0 contributions</title></rect><rect x="679.0" y="167" width="13" height="13" rx="3" fill="#1c222c"><title>2026-06-24: 0 contributions</title></rect><rect x="679.0" y="184" width="13" height="13" rx="3" fill="#1c222c"><title>2026-06-25: 0 contributions</title></rect><rect x="679.0" y="201" width="13" height="13" rx="3" fill="#1c222c"><title>2026-06-26: 0 contributions</title></rect><rect x="679.0" y="218" width="13" height="13" rx="3" fill="#742331"><title>2026-06-27: 5 contributions</title></rect><rect x="696.0" y="116" width="13" height="13" rx="3" fill="#b42b40"><title>2026-06-28: 9 contributions</title></rect><rect x="696.0" y="133" width="13" height="13" rx="3" fill="#b42b40"><title>2026-06-29: 9 contributions</title></rect><rect x="696.0" y="150" width="13" height="13" rx="3" fill="#3b1720"><title>2026-06-30: 1 contributions</title></rect><rect x="696.0" y="167" width="13" height="13" rx="3" fill="#3b1720"><title>2026-07-01: 1 contributions</title></rect><rect x="696.0" y="184" width="13" height="13" rx="3" fill="#3b1720"><title>2026-07-02: 1 contributions</title></rect><rect x="696.0" y="201" width="13" height="13" rx="3" fill="#1c222c"><title>2026-07-03: 0 contributions</title></rect><rect x="696.0" y="218" width="13" height="13" rx="3" fill="#3b1720"><title>2026-07-04: 1 contributions</title></rect><rect x="713.0" y="116" width="13" height="13" rx="3" fill="#1c222c"><title>2026-07-05: 0 contributions</title></rect><rect x="713.0" y="133" width="13" height="13" rx="3" fill="#1c222c"><title>2026-07-06: 0 contributions</title></rect><rect x="713.0" y="150" width="13" height="13" rx="3" fill="#1c222c"><title>2026-07-07: 0 contributions</title></rect><rect x="713.0" y="167" width="13" height="13" rx="3" fill="#1c222c"><title>2026-07-08: 0 contributions</title></rect><rect x="713.0" y="184" width="13" height="13" rx="3" fill="#1c222c"><title>2026-07-09: 0 contributions</title></rect><rect x="713.0" y="201" width="13" height="13" rx="3" fill="#f03247"><title>2026-07-10: 16 contributions</title></rect><rect x="713.0" y="218" width="13" height="13" rx="3" fill="#1c222c"><title>2026-07-11: 0 contributions</title></rect><rect x="730.0" y="116" width="13" height="13" rx="3" fill="#1c222c"><title>2026-07-12: 0 contributions</title></rect><rect x="730.0" y="133" width="13" height="13" rx="3" fill="#1c222c"><title>2026-07-13: 0 contributions</title></rect><rect x="730.0" y="150" width="13" height="13" rx="3" fill="#1c222c"><title>2026-07-14: 0 contributions</title></rect><rect x="730.0" y="167" width="13" height="13" rx="3" fill="#f03247"><title>2026-07-15: 49 contributions</title></rect><rect x="730.0" y="184" width="13" height="13" rx="3" fill="#742331"><title>2026-07-16: 3 contributions</title></rect><rect x="730.0" y="201" width="13" height="13" rx="3" fill="#1c222c"><title>2026-07-17: 0 contributions</title></rect><rect x="730.0" y="218" width="13" height="13" rx="3" fill="#1c222c"><title>2026-07-18: 0 contributions</title></rect><rect x="747.0" y="116" width="13" height="13" rx="3" fill="#1c222c"><title>2026-07-19: 0 contributions</title></rect><rect x="747.0" y="133" width="13" height="13" rx="3" fill="#1c222c"><title>2026-07-20: 0 contributions</title></rect><rect x="747.0" y="150" width="13" height="13" rx="3" fill="#1c222c"><title>2026-07-21: 0 contributions</title></rect><rect x="747.0" y="167" width="13" height="13" rx="3" fill="#1c222c"><title>2026-07-22: 0 contributions</title></rect><rect x="747.0" y="184" width="13" height="13" rx="3" fill="#1c222c"><title>2026-07-23: 0 contributions</title></rect><rect x="747.0" y="201" width="13" height="13" rx="3" fill="#b42b40"><title>2026-07-24: 6 contributions</title></rect><rect x="747.0" y="218" width="13" height="13" rx="3" fill="#1c222c"><title>2026-07-25: 0 contributions</title></rect><rect x="764.0" y="116" width="13" height="13" rx="3" fill="#1c222c"><title>2026-07-26: 0 contributions</title></rect><rect x="764.0" y="133" width="13" height="13" rx="3" fill="#1c222c"><title>2026-07-27: 0 contributions</title></rect><rect x="764.0" y="150" width="13" height="13" rx="3" fill="#1c222c"><title>2026-07-28: 0 contributions</title></rect><rect x="764.0" y="167" width="13" height="13" rx="3" fill="#1c222c"><title>2026-07-29: 0 contributions</title></rect><rect x="764.0" y="184" width="13" height="13" rx="3" fill="#1c222c"><title>2026-07-30: 0 contributions</title></rect><rect x="764.0" y="201" width="13" height="13" rx="3" fill="#1c222c"><title>2026-07-31: 0 contributions</title></rect><rect x="764.0" y="218" width="13" height="13" rx="3" fill="#1c222c"><title>2026-08-01: 0 contributions</title></rect><rect x="781.0" y="116" width="13" height="13" rx="3" fill="#1c222c"><title>2026-08-02: 0 contributions</title></rect><rect x="781.0" y="133" width="13" height="13" rx="3" fill="#1c222c"><title>2026-08-03: 0 contributions</title></rect><rect x="781.0" y="150" width="13" height="13" rx="3" fill="#3b1720"><title>2026-08-04: 2 contributions</title></rect><rect x="781.0" y="167" width="13" height="13" rx="3" fill="#1c222c"><title>2026-08-05: 0 contributions</title></rect><rect x="781.0" y="184" width="13" height="13" rx="3" fill="#1c222c"><title>2026-08-06: 0 contributions</title></rect><rect x="781.0" y="201" width="13" height="13" rx="3" fill="#1c222c"><title>2026-08-07: 0 contributions</title></rect><rect x="781.0" y="218" width="13" height="13" rx="3" fill="#1c222c"><title>2026-08-08: 0 contributions</title></rect><rect x="798.0" y="116" width="13" height="13" rx="3" fill="#1c222c"><title>2026-08-09: 0 contributions</title></rect><rect x="798.0" y="133" width="13" height="13" rx="3" fill="#1c222c"><title>2026-08-10: 0 contributions</title></rect><rect x="798.0" y="150" width="13" height="13" rx="3" fill="#1c222c"><title>2026-08-11: 0 contributions</title></rect><rect x="798.0" y="167" width="13" height="13" rx="3" fill="#1c222c"><title>2026-08-12: 0 contributions</title></rect><rect x="798.0" y="184" width="13" height="13" rx="3" fill="#1c222c"><title>2026-08-13: 0 contributions</title></rect><rect x="798.0" y="201" width="13" height="13" rx="3" fill="#1c222c"><title>2026-08-14: 0 contributions</title></rect><rect x="798.0" y="218" width="13" height="13" rx="3" fill="#3b1720"><title>2026-08-15: 1 contributions</title></rect><rect x="815.0" y="116" width="13" height="13" rx="3" fill="#1c222c"><title>2026-08-16: 0 contributions</title></rect><rect x="815.0" y="133" width="13" height="13" rx="3" fill="#1c222c"><title>2026-08-17: 0 contributions</title></rect><rect x="815.0" y="150" width="13" height="13" rx="3" fill="#3b1720"><title>2026-08-18: 2 contributions</title></rect><rect x="815.0" y="167" width="13" height="13" rx="3" fill="#3b1720"><title>2026-08-19: 1 contributions</title></rect><rect x="815.0" y="184" width="13" height="13" rx="3" fill="#1c222c"><title>2026-08-20: 0 contributions</title></rect><rect x="815.0" y="201" width="13" height="13" rx="3" fill="#1c222c"><title>2026-08-21: 0 contributions</title></rect><rect x="815.0" y="218" width="13" height="13" rx="3" fill="#1c222c"><title>2026-08-22: 0 contributions</title></rect><rect x="832.0" y="116" width="13" height="13" rx="3" fill="#1c222c"><title>2026-08-23: 0 contributions</title></rect><rect x="832.0" y="133" width="13" height="13" rx="3" fill="#1c222c"><title>2026-08-24: 0 contributions</title></rect><rect x="832.0" y="150" width="13" height="13" rx="3" fill="#1c222c"><title>2026-08-25: 0 contributions</title></rect><rect x="832.0" y="167" width="13" height="13" rx="3" fill="#1c222c"><title>2026-08-26: 0 contributions</title></rect><rect x="832.0" y="184" width="13" height="13" rx="3" fill="#3b1720"><title>2026-08-27: 2 contributions</title></rect><rect x="832.0" y="201" width="13" height="13" rx="3" fill="#1c222c"><title>2026-08-28: 0 contributions</title></rect><rect x="832.0" y="218" width="13" height="13" rx="3" fill="#b42b40"><title>2026-08-29: 6 contributions</title></rect><rect x="849.0" y="116" width="13" height="13" rx="3" fill="#1c222c"><title>2026-08-30: 0 contributions</title></rect><rect x="849.0" y="133" width="13" height="13" rx="3" fill="#1c222c"><title>2026-08-31: 0 contributions</title></rect><rect x="849.0" y="150" width="13" height="13" rx="3" fill="#1c222c"><title>2026-09-01: 0 contributions</title></rect><rect x="849.0" y="167" width="13" height="13" rx="3" fill="#1c222c"><title>2026-09-02: 0 contributions</title></rect><rect x="849.0" y="184" width="13" height="13" rx="3" fill="#1c222c"><title>2026-09-03: 0 contributions</title></rect><rect x="849.0" y="201" width="13" height="13" rx="3" fill="#1c222c"><title>2026-09-04: 0 contributions</title></rect><rect x="849.0" y="218" width="13" height="13" rx="3" fill="#f03247"><title>2026-09-05: 21 contributions</title></rect><rect x="866.0" y="116" width="13" height="13" rx="3" fill="#1c222c"><title>2026-09-06: 0 contributions</title></rect><rect x="866.0" y="133" width="13" height="13" rx="3" fill="#1c222c"><title>2026-09-07: 0 contributions</title></rect><rect x="866.0" y="150" width="13" height="13" rx="3" fill="#1c222c"><title>2026-09-08: 0 contributions</title></rect><rect x="866.0" y="167" width="13" height="13" rx="3" fill="#1c222c"><title>2026-09-09: 0 contributions</title></rect><rect x="866.0" y="184" width="13" height="13" rx="3" fill="#1c222c"><title>2026-09-10: 0 contributions</title></rect><rect x="866.0" y="201" width="13" height="13" rx="3" fill="#1c222c"><title>2026-09-11: 0 contributions</title></rect><rect x="866.0" y="218" width="13" height="13" rx="3" fill="#1c222c"><title>2026-09-12: 0 contributions</title></rect><rect x="883.0" y="116" width="13" height="13" rx="3" fill="#1c222c"><title>2026-09-13: 0 contributions</title></rect><rect x="883.0" y="133" width="13" height="13" rx="3" fill="#1c222c"><title>2026-09-14: 0 contributions</title></rect><rect x="883.0" y="150" width="13" height="13" rx="3" fill="#1c222c"><title>2026-09-15: 0 contributions</title></rect><rect x="883.0" y="167" width="13" height="13" rx="3" fill="#1c222c"><title>2026-09-16: 0 contributions</title></rect><rect x="883.0" y="184" width="13" height="13" rx="3" fill="#1c222c"><title>2026-09-17: 0 contributions</title></rect><rect x="883.0" y="201" width="13" height="13" rx="3" fill="#1c222c"><title>2026-09-18: 0 contributions</title></rect><rect x="883.0" y="218" width="13" height="13" rx="3" fill="#1c222c"><title>2026-09-19: 0 contributions</title></rect><rect x="900.0" y="116" width="13" height="13" rx="3" fill="#1c222c"><title>2026-09-20: 0 contributions</title></rect><rect x="900.0" y="133" width="13" height="13" rx="3" fill="#1c222c"><title>2026-09-21: 0 contributions</title></rect><rect x="900.0" y="150" width="13" height="13" rx="3" fill="#1c222c"><title>2026-09-22: 0 contributions</title></rect><rect x="900.0" y="167" width="13" height="13" rx="3" fill="#1c222c"><title>2026-09-23: 0 contributions</title></rect><rect x="900.0" y="184" width="13" height="13" rx="3" fill="#1c222c"><title>2026-09-24: 0 contributions</title></rect><rect x="900.0" y="201" width="13" height="13" rx="3" fill="#1c222c"><title>2026-09-25: 0 contributions</title></rect><rect x="900.0" y="218" width="13" height="13" rx="3" fill="#1c222c"><title>2026-09-26: 0 contributions</title></rect><rect x="917.0" y="116" width="13" height="13" rx="3" fill="#1c222c"><title>2026-09-27: 0 contributions</title></rect><rect x="917.0" y="133" width="13" height="13" rx="3" fill="#1c222c"><title>2026-09-28: 0 contributions</title></rect><rect x="917.0" y="150" width="13" height="13" rx="3" fill="#1c222c"><title>2026-09-29: 0 contributions</title></rect><rect x="917.0" y="167" width="13" height="13" rx="3" fill="#1c222c"><title>2026-09-30: 0 contributions</title></rect><rect x="917.0" y="184" width="13" height="13" rx="3" fill="#742331"><title>2026-10-01: 3 contributions</title></rect><rect x="917.0" y="201" width="13" height="13" rx="3" fill="#1c222c"><title>2026-10-02: 0 contributions</title></rect><rect x="917.0" y="218" width="13" height="13" rx="3" fill="#1c222c"><title>2026-10-03: 0 contributions</title></rect><rect x="934.0" y="116" width="13" height="13" rx="3" fill="#1c222c"><title>2026-10-04: 0 contributions</title></rect><rect x="934.0" y="133" width="13" height="13" rx="3" fill="#1c222c"><title>2026-10-05: 0 contributions</title></rect><text x="30" y="260" fill="#939daa" font-family="monospace" font-size="10">LESS</text><rect x="70" y="248" width="13" height="13" rx="3" fill="#1c222c"/><rect x="88" y="248" width="13" height="13" rx="3" fill="#3b1720"/><rect x="106" y="248" width="13" height="13" rx="3" fill="#742331"/><rect x="124" y="248" width="13" height="13" rx="3" fill="#b42b40"/><rect x="142" y="248" width="13" height="13" rx="3" fill="#f03247"/><text x="168" y="260" fill="#939daa" font-family="monospace" font-size="10">MORE</text><text x="625" y="260" fill="#939daa" font-family="monospace" font-size="11">REFRESHED 2026-10-05 10:26 UTC</text></svg>