<svg xmlns="http://www.w3.org/2000/svg" width="1000" height="300" viewBox="0 0 1000 300"><rect width="1000" height="300" fill="#090b0f"/><text x="24" y="31" fill="#f3f5f7" font-family="DejaVu Sans Mono,monospace" font-size="13" font-weight="700" text-anchor="start">PRIMARY LANGUAGE</text><text x="24" y="53" fill="#8c949f" font-family="DejaVu Sans Mono,monospace" font-size="11" font-weight="400" text-anchor="start">By repository count · 5 public repos</text><path d="M146.0 83.0 A80 80 0 1 1 98.97717981660216 227.72135954999578" stroke="#f03247" stroke-width="22" fill="none"/><path d="M98.97717981660216 227.72135954999578 A80 80 0 0 1 69.91547869638771 138.27864045000422" stroke="#c5cbd6" stroke-width="22" fill="none"/><path d="M69.91547869638771 138.27864045000422 A80 80 0 0 1 145.99999999999997 83.0" stroke="#69788c" stroke-width="22" fill="none"/><text x="146" y="165" fill="#f3f5f7" font-family="DejaVu Sans Mono,monospace" font-size="35" font-weight="700" text-anchor="middle">05</text><text x="146" y="186" fill="#8c949f" font-family="DejaVu Sans Mono,monospace" font-size="9" font-weight="400" text-anchor="middle">PUBLIC REPOS</text><rect x="263" y="95" width="9" height="9" fill="#f03247"/><text x="285" y="105" fill="#f3f5f7" font-family="DejaVu Sans Mono,monospace" font-size="14" font-weight="400" text-anchor="start">JavaScript</text><text x="285" y="124" fill="#8c949f" font-family="DejaVu Sans Mono,monospace" font-size="11" font-weight="400" text-anchor="start">3 repos / 60%</text><rect x="263" y="141" width="9" height="9" fill="#c5cbd6"/><text x="285" y="151" fill="#f3f5f7" font-family="DejaVu Sans Mono,monospace" font-size="14" font-weight="400" text-anchor="start">TypeScript</text><text x="285" y="170" fill="#8c949f" font-family="DejaVu Sans Mono,monospace" font-size="11" font-weight="400" text-anchor="start">1 repos / 20%</text><rect x="263" y="187" width="9" height="9" fill="#69788c"/><text x="285" y="197" fill="#f3f5f7" font-family="DejaVu Sans Mono,monospace" font-size="14" font-weight="400" text-anchor="start">PHP</text><text x="285" y="216" fill="#8c949f" font-family="DejaVu Sans Mono,monospace" font-size="11" font-weight="400" text-anchor="start">1 repos / 20%</text><line x1="500" y1="20" x2="500" y2="274" stroke="#272c35"/><text x="530" y="31" fill="#f3f5f7" font-family="DejaVu Sans Mono,monospace" font-size="13" font-weight="700" text-anchor="start">REPOSITORY SIZE</text><text x="530" y="53" fill="#8c949f" font-family="DejaVu Sans Mono,monospace" font-size="11" font-weight="400" text-anchor="start">GitHub disk usage · KB · includes assets</text><text x="530" y="91" fill="#8c949f" font-family="DejaVu Sans Mono,monospace" font-size="11" font-weight="400" text-anchor="start">LMS</text><rect x="646" y="80" width="250" height="13" fill="#191e27"/><rect x="646" y="80" width="250.0" height="13" fill="#f03247"/><text x="909" y="91" fill="#f3f5f7" font-family="DejaVu Sans Mono,monospace" font-size="11" font-weight="400" text-anchor="start">12570</text><text x="530" y="128" fill="#8c949f" font-family="DejaVu Sans Mono,monospace" font-size="11" font-weight="400" text-anchor="start">Diving center</text><rect x="646" y="117" width="250" height="13" fill="#191e27"/><rect x="646" y="117" width="176.0540970564837" height="13" fill="#7d303e"/><text x="909" y="128" fill="#f3f5f7" font-family="DejaVu Sans Mono,monospace" font-size="11" font-weight="400" text-anchor="start">8852</text><text x="530" y="165" fill="#8c949f" font-family="DejaVu Sans Mono,monospace" font-size="11" font-weight="400" text-anchor="start">Doctor app</text><rect x="646" y="154" width="250" height="13" fill="#191e27"/><rect x="646" y="154" width="96.14160700079555" height="13" fill="#7d303e"/><text x="909" y="165" fill="#f3f5f7" font-family="DejaVu Sans Mono,monospace" font-size="11" font-weight="400" text-anchor="start">4834</text><text x="530" y="202" fill="#8c949f" font-family="DejaVu Sans Mono,monospace" font-size="11" font-weight="400" text-anchor="start">Prescripto</text><rect x="646" y="191" width="250" height="13" fill="#191e27"/><rect x="646" y="191" width="95.50517104216388" height="13" fill="#7d303e"/><text x="909" y="202" fill="#f3f5f7" font-family="DejaVu Sans Mono,monospace" font-size="11" font-weight="400" text-anchor="start">4802</text><text x="530" y="239" fill="#8c949f" font-family="DejaVu Sans Mono,monospace" font-size="11" font-weight="400" text-anchor="start">Birthday site</text><rect x="646" y="228" width="250" height="13" fill="#191e27"/><rect x="646" y="228" width="33.51233094669849" height="13" fill="#7d303e"/><text x="909" y="239" fill="#f3f5f7" font-family="DejaVu Sans Mono,monospace" font-size="11" font-weight="400" text-anchor="start">1685</text><text x="24" y="283" fill="#8c949f" font-family="DejaVu Sans Mono,monospace" font-size="9" font-weight="400" text-anchor="start">SOURCE: GITHUB / SNAPSHOT 01 OCT 2026</text></svg>