<svg xmlns="http://www.w3.org/2000/svg" width="1000" height="231" viewBox="0 0 1000 231"><rect width="1000" height="231" fill="#090b0f"/><rect x="1" y="1" width="998" height="229" fill="#101319" stroke="#272c35"/><path d="M1 40 V1 H85" stroke="#f03247" fill="none" stroke-width="2"/><rect x="24" y="24" width="295" height="157" rx="5" fill="#090b0f" stroke="#383e49"/><path d="M24 45 H319" stroke="#272c35"/><circle cx="35" cy="35" r="2.5" fill="#f03247"/><circle cx="46" cy="35" r="2.5" fill="#272c35"/><circle cx="57" cy="35" r="2.5" fill="#272c35"/><rect x="44" y="63" width="25" height="23" rx="2" fill="#272c35"/><rect x="81" y="63" width="25" height="23" rx="2" fill="#272c35"/><rect x="118" y="63" width="25" height="23" rx="2" fill="#272c35"/><rect x="155" y="63" width="25" height="23" rx="2" fill="#272c35"/><rect x="192" y="63" width="25" height="23" rx="2" fill="#272c35"/><rect x="229" y="63" width="25" height="23" rx="2" fill="#272c35"/><rect x="266" y="63" width="25" height="23" rx="2" fill="#272c35"/><rect x="44" y="96" width="25" height="23" rx="2" fill="#272c35"/><rect x="81" y="96" width="25" height="23" rx="2" fill="#272c35"/><rect x="118" y="96" width="25" height="23" rx="2" fill="#272c35"/><rect x="155" y="96" width="25" height="23" rx="2" fill="#f03247"/><rect x="192" y="96" width="25" height="23" rx="2" fill="#272c35"/><rect x="229" y="96" width="25" height="23" rx="2" fill="#272c35"/><rect x="266" y="96" width="25" height="23" rx="2" fill="#272c35"/><rect x="44" y="129" width="25" height="23" rx="2" fill="#272c35"/><rect x="81" y="129" width="25" height="23" rx="2" fill="#272c35"/><rect x="118" y="129" width="25" height="23" rx="2" fill="#272c35"/><rect x="155" y="129" width="25" height="23" rx="2" fill="#272c35"/><rect x="192" y="129" width="25" height="23" rx="2" fill="#272c35"/><rect x="229" y="129" width="25" height="23" rx="2" fill="#272c35"/><rect x="266" y="129" width="25" height="23" rx="2" fill="#272c35"/><text x="24" y="207" fill="#929ba7" font-family="DejaVu Sans Mono,monospace" font-size="9" font-weight="400" text-anchor="start">INTERFACE CONCEPT / NOT A SCREENSHOT</text><text x="352" y="42" fill="#f03247" font-family="DejaVu Sans Mono,monospace" font-size="12" font-weight="400" text-anchor="start">04 / APPLICATION</text><text x="352" y="84" fill="#f3f5f7" font-family="DejaVu Sans Mono,monospace" font-size="28" font-weight="700" text-anchor="start">Doctor Appointments</text><text x="352" y="122" fill="#929ba7" font-family="DejaVu Sans Mono,monospace" font-size="16" font-weight="400" text-anchor="start">Online appointment requests</text><text x="352" y="149" fill="#929ba7" font-family="DejaVu Sans Mono,monospace" font-size="16" font-weight="400" text-anchor="start">Tools for managing doctor schedules</text><text x="352" y="186" fill="#929ba7" font-family="DejaVu Sans Mono,monospace" font-size="12" font-weight="400" text-anchor="start">PHP / Web application</text><text x="352" y="212" fill="#f03247" font-family="DejaVu Sans Mono,monospace" font-size="13" font-weight="700" text-anchor="start">EXPLORE THE REPOSITORY  ↗</text></svg>